# xmcd
#
# Track frame offsets: 
#        150
#        14565
#        28232
#        42570
#        58542
#        72467
#        83610
#        95652
#        108527
#        122370
#
# Disc length: 1935 seconds
#
# Revision: 0
# Processed by: cddbd v1.5.1PL0 Copyright (c) Steve Scherf et al.
# Submitted via: ExactAudioCopy v0.95a4
#
DISCID=87078d0a
DTITLE=Eddie "Cleanhead" Vinson - Cherry Red
DYEAR=1967
DGENRE=Blues
TTITLE0=Cherry Red
TTITLE1=Cadillac Blues
TTITLE2=Juice Head Baby
TTITLE3=Alimony Blues
TTITLE4=Somebody's Got To Go
TTITLE5=Flat Broke Blues
TTITLE6=Old Maid Got Married
TTITLE7=Workin' Blues
TTITLE8=Wee Baby Blues
TTITLE9=Goodnight Baby Blues
EXTD=
EXTT0=
EXTT1=
EXTT2=
EXTT3=
EXTT4=
EXTT5=
EXTT6=
EXTT7=
EXTT8=
EXTT9=
PLAYORDER=
